<svg width="161" height="161" viewBox="0 0 161 161" fill="none" xmlns="http://www.w3.org/2000/svg">
<path d="M0 15.0938C0 13.7594 0.530077 12.4797 1.47362 11.5361C2.41716 10.5926 3.69688 10.0625 5.03125 10.0625H15.0938C16.4281 10.0625 17.7078 10.5926 18.6514 11.5361C19.5949 12.4797 20.125 13.7594 20.125 15.0938V40.25H155.969C157.303 40.25 158.583 40.7801 159.526 41.7236C160.47 42.6672 161 43.9469 161 45.2812V115.719C161 117.053 160.47 118.333 159.526 119.276C158.583 120.22 157.303 120.75 155.969 120.75H20.125V145.906C20.125 147.241 19.5949 148.52 18.6514 149.464C17.7078 150.407 16.4281 150.938 15.0938 150.938C13.7594 150.938 12.4797 150.407 11.5361 149.464C10.5926 148.52 10.0625 147.241 10.0625 145.906V20.125H5.03125C3.69688 20.125 2.41716 19.5949 1.47362 18.6514C0.530077 17.7078 0 16.4281 0 15.0938Z" fill="black"/>
<path d="M30.1875 125.781H65.4062V135.844C65.4062 137.178 64.8762 138.458 63.9326 139.401C62.9891 140.345 61.7094 140.875 60.375 140.875H35.2188C33.8844 140.875 32.6047 140.345 31.6611 139.401C30.7176 138.458 30.1875 137.178 30.1875 135.844V125.781ZM70.4375 125.781H110.688V135.844C110.688 137.178 110.157 138.458 109.214 139.401C108.27 140.345 106.991 140.875 105.656 140.875H75.4688C74.1344 140.875 72.8547 140.345 71.9111 139.401C70.9676 138.458 70.4375 137.178 70.4375 135.844V125.781Z" fill="black"/>
</svg>
