<svg width="184" height="184" viewBox="0 0 184 184" fill="none" xmlns="http://www.w3.org/2000/svg">
<path d="M118.603 86.5796C117.891 85.8673 117.046 85.3021 116.116 84.9164C115.186 84.5307 114.189 84.332 113.182 84.3317C112.175 84.3313 111.178 84.5293 110.247 84.9144C109.317 85.2994 108.471 85.8639 107.759 86.5757C107.046 87.2875 106.481 88.1327 106.096 89.0629C105.71 89.9931 105.511 90.9902 105.511 91.9972C105.51 93.0042 105.708 94.0014 106.093 94.9319C106.478 95.8624 107.043 96.7079 107.755 97.4202C109.192 98.8588 111.143 99.6674 113.176 99.6681C115.21 99.6688 117.161 98.8616 118.599 97.4241C120.038 95.9865 120.847 94.0364 120.847 92.0026C120.848 89.9689 120.041 88.0181 118.603 86.5796ZM124.024 70.3186C124.731 69.5863 125.577 69.0023 126.512 68.6005C127.447 68.1987 128.453 67.9872 129.471 67.9783C130.489 67.9695 131.499 68.1634 132.441 68.5489C133.383 68.9344 134.239 69.5037 134.959 70.2235C135.679 70.9434 136.248 71.7994 136.634 72.7416C137.019 73.6838 137.213 74.6933 137.204 75.7113C137.196 76.7293 136.984 77.7353 136.582 78.6707C136.18 79.606 135.596 80.452 134.864 81.1592C133.418 82.5558 131.482 83.3285 129.471 83.3111C127.461 83.2936 125.538 82.4873 124.117 81.0658C122.695 79.6444 121.889 77.7215 121.872 75.7113C121.854 73.7011 122.627 71.7645 124.024 70.3186ZM151.125 86.5796C150.418 85.8473 149.572 85.2633 148.637 84.8615C147.701 84.4597 146.695 84.2482 145.677 84.2393C144.659 84.2305 143.65 84.4245 142.708 84.8099C141.765 85.1954 140.909 85.7647 140.189 86.4845C139.47 87.2044 138.9 88.0604 138.515 89.0026C138.129 89.9448 137.935 90.9543 137.944 91.9723C137.953 92.9903 138.165 93.9963 138.566 94.9317C138.968 95.867 139.552 96.713 140.285 97.4202C141.73 98.8168 143.667 99.5895 145.677 99.5721C147.687 99.5546 149.61 98.7483 151.032 97.3268C152.453 95.9054 153.26 93.9825 153.277 91.9723C153.294 89.9621 152.522 88.0255 151.125 86.5796ZM124.024 102.841C124.736 102.129 125.581 101.564 126.512 101.179C127.442 100.794 128.44 100.596 129.447 100.597C130.454 100.597 131.451 100.796 132.381 101.181C133.311 101.567 134.156 102.132 134.868 102.844C135.58 103.557 136.144 104.402 136.529 105.333C136.914 106.263 137.112 107.26 137.112 108.267C137.112 109.274 136.913 110.272 136.527 111.202C136.142 112.132 135.576 112.977 134.864 113.689C133.426 115.126 131.475 115.934 129.441 115.933C127.407 115.932 125.457 115.124 124.02 113.685C122.582 112.246 121.775 110.296 121.776 108.262C121.776 106.228 122.585 104.278 124.024 102.841ZM45.9998 99.6666H30.6665V84.3332H45.9998V68.9999H61.3332V84.3332H76.6665V99.6666H61.3332V115H45.9998V99.6666Z" fill="black"/>
<path fill-rule="evenodd" clip-rule="evenodd" d="M53.6667 38.3333C39.4334 38.3333 25.7831 43.9874 15.7186 54.0519C5.65415 64.1163 0 77.7666 0 91.9999C0 106.233 5.65415 119.884 15.7186 129.948C25.7831 140.012 39.4334 145.667 53.6667 145.667H130.333C137.381 145.667 144.36 144.278 150.871 141.581C157.382 138.884 163.298 134.931 168.281 129.948C173.265 124.965 177.218 119.048 179.915 112.537C182.612 106.026 184 99.0475 184 91.9999C184 84.9523 182.612 77.9737 179.915 71.4626C177.218 64.9514 173.265 59.0353 168.281 54.0519C163.298 49.0684 157.382 45.1154 150.871 42.4184C144.36 39.7214 137.381 38.3333 130.333 38.3333H53.6667ZM130.333 53.6666H53.6667C43.5 53.6666 33.7498 57.7053 26.5609 64.8942C19.372 72.0831 15.3333 81.8333 15.3333 91.9999C15.3333 102.167 19.372 111.917 26.5609 119.106C33.7498 126.295 43.5 130.333 53.6667 130.333H130.333C140.5 130.333 150.25 126.295 157.439 119.106C164.628 111.917 168.667 102.167 168.667 91.9999C168.667 81.8333 164.628 72.0831 157.439 64.8942C150.25 57.7053 140.5 53.6666 130.333 53.6666Z" fill="black"/>
</svg>
