<svg width="70" height="70" viewBox="0 0 70 70" fill="none" xmlns="http://www.w3.org/2000/svg">
<path d="M24.6042 3.12274C17.7311 5.50708 11.8037 10.0326 7.69272 16.0347C3.58175 22.0367 1.50385 29.1989 1.76423 36.4692C2.02461 43.7395 4.60956 50.7346 9.13937 56.4272C13.6692 62.1198 19.9051 66.2097 26.9312 68.0963C32.6274 69.5661 38.5953 69.6306 44.3219 68.2844C49.5097 67.1191 54.3059 64.6265 58.241 61.0508C62.3365 57.2155 65.3093 52.3365 66.8396 46.9382C68.5025 41.0678 68.7985 34.8944 67.7049 28.8918H35.7179V42.1606H54.2426C53.8724 44.2769 53.079 46.2967 51.91 48.0992C50.7409 49.9017 49.2202 51.4499 47.4389 52.651C45.1772 54.1478 42.6271 55.1547 39.9527 55.6067C37.2708 56.1056 34.5198 56.1056 31.8378 55.6067C29.1193 55.0453 26.5477 53.9233 24.2871 52.3124C20.655 49.7413 17.9277 46.0887 16.4946 41.8758C15.0376 37.5839 15.0376 32.9311 16.4946 28.6392C17.5147 25.6309 19.2012 22.8918 21.428 20.6264C23.9764 17.9863 27.2027 16.0992 30.753 15.172C34.3033 14.2449 38.0404 14.3135 41.5542 15.3704C44.2994 16.2127 46.8096 17.685 48.8846 19.6698C50.9733 17.5918 53.0585 15.5084 55.1401 13.4196C56.2149 12.2964 57.3865 11.227 58.4452 10.0769C55.2773 7.12927 51.5591 4.83551 47.5034 3.32696C40.1178 0.645201 32.0365 0.573131 24.6042 3.12274Z" fill="white"/>
<path d="M24.6042 3.12291C32.036 0.571568 40.1172 0.641741 47.5035 3.32175C51.5599 4.84055 55.2764 7.14536 58.4399 10.1039C57.3651 11.254 56.2311 12.3288 55.1348 13.4467C53.0496 15.5283 50.9662 17.6027 48.8847 19.6699C46.8097 17.6851 44.2994 16.2129 41.5543 15.3706C38.0416 14.31 34.3047 14.2373 30.7534 15.1607C27.2022 16.0841 23.9739 17.9677 21.4227 20.605C19.1959 22.8704 17.5094 25.6095 16.4893 28.6179L5.34863 19.9924C9.3363 12.0846 16.2407 6.03583 24.6042 3.12291Z" fill="#E33629"/>
<path d="M2.39245 28.5371C2.99081 25.5693 3.98495 22.6954 5.34824 19.9922L16.4889 28.6392C15.0319 32.9311 15.0319 37.5838 16.4889 41.8757C12.7771 44.742 9.06357 47.6225 5.34824 50.5174C1.93646 43.7262 0.895927 35.9884 2.39245 28.5371Z" fill="#F8BD00"/>
<path d="M35.7177 28.8862H67.7047C68.7983 34.8888 68.5023 41.0622 66.8395 46.9326C65.3091 52.3309 62.3363 57.2099 58.2408 61.0452C54.6455 58.2399 51.0341 55.4561 47.4388 52.6507C49.2212 51.4484 50.7426 49.8986 51.9117 48.0942C53.0808 46.2897 53.8736 44.2678 54.2424 42.1496H35.7177C35.7123 37.7321 35.7177 33.3092 35.7177 28.8862Z" fill="#587DBD"/>
<path d="M5.34302 50.5176C9.05835 47.6514 12.7719 44.7709 16.4836 41.876C17.9197 46.0904 20.6508 49.7432 24.2869 52.3126C26.5545 53.9161 29.1317 55.0289 31.8537 55.5801C34.5357 56.0789 37.2867 56.0789 39.9687 55.5801C42.643 55.128 45.1931 54.1212 47.4549 52.6243C51.0502 55.4296 54.6616 58.2134 58.2569 61.0187C54.3225 64.5964 49.5262 67.0909 44.3379 68.2577C38.6112 69.604 32.6433 69.5394 26.9471 68.0696C22.442 66.8667 18.2339 64.7462 14.5866 61.841C10.7265 58.7757 7.57348 54.9133 5.34302 50.5176Z" fill="#319F43"/>
</svg>
