<svg width="188" height="188" viewBox="0 0 188 188" fill="none" xmlns="http://www.w3.org/2000/svg">
<path d="M93.9998 172.333C78.8554 172.333 65.9304 166.981 55.2248 156.275C44.5193 145.57 39.1665 132.645 39.1665 117.5V70.5001C39.1665 55.3556 44.5193 42.4306 55.2248 31.7251C65.9304 21.0195 78.8554 15.6667 93.9998 15.6667C109.144 15.6667 122.069 21.0195 132.775 31.7251C143.48 42.4306 148.833 55.3556 148.833 70.5001V117.5C148.833 132.645 143.48 145.57 132.775 156.275C122.069 166.981 109.144 172.333 93.9998 172.333ZM101.833 70.5001H133.167C133.167 61.1001 130.198 52.8098 124.26 45.6292C118.322 38.4487 110.847 33.9445 101.833 32.1167V70.5001ZM54.8332 70.5001H86.1665V32.1167C77.1582 33.9445 69.6826 38.4487 63.7397 45.6292C57.7968 52.8098 54.8279 61.1001 54.8332 70.5001ZM93.9998 156.667C104.836 156.667 114.074 152.847 121.714 145.207C129.354 137.566 133.172 128.331 133.167 117.5V86.1667H54.8332V117.5C54.8332 128.336 58.6532 137.574 66.2933 145.214C73.9334 152.855 83.1689 156.672 93.9998 156.667Z" fill="black"/>
</svg>
