<svg width="256" height="256" viewBox="0 0 256 256" fill="none" xmlns="http://www.w3.org/2000/svg">
<path d="M232 168H224V72C224 65.6348 221.471 59.5303 216.971 55.0294C212.47 50.5286 206.365 48 200 48H56C49.6348 48 43.5303 50.5286 39.0294 55.0294C34.5286 59.5303 32 65.6348 32 72V168H24C21.8783 168 19.8434 168.843 18.3431 170.343C16.8429 171.843 16 173.878 16 176V192C16 198.365 18.5286 204.47 23.0294 208.971C27.5303 213.471 33.6348 216 40 216H216C222.365 216 228.47 213.471 232.971 208.971C237.471 204.47 240 198.365 240 192V176C240 173.878 239.157 171.843 237.657 170.343C236.157 168.843 234.122 168 232 168ZM48 72C48 69.8783 48.8429 67.8434 50.3431 66.3431C51.8434 64.8429 53.8783 64 56 64H200C202.122 64 204.157 64.8429 205.657 66.3431C207.157 67.8434 208 69.8783 208 72V168H48V72ZM224 192C224 194.122 223.157 196.157 221.657 197.657C220.157 199.157 218.122 200 216 200H40C37.8783 200 35.8434 199.157 34.3431 197.657C32.8429 196.157 32 194.122 32 192V184H224V192ZM152 88C152 90.1217 151.157 92.1566 149.657 93.6569C148.157 95.1571 146.122 96 144 96H112C109.878 96 107.843 95.1571 106.343 93.6569C104.843 92.1566 104 90.1217 104 88C104 85.8783 104.843 83.8434 106.343 82.3431C107.843 80.8429 109.878 80 112 80H144C146.122 80 148.157 80.8429 149.657 82.3431C151.157 83.8434 152 85.8783 152 88Z" fill="black"/>
</svg>
