<svg width="189" height="189" viewBox="0 0 189 189" fill="none" xmlns="http://www.w3.org/2000/svg">
<path d="M55.504 105.572L83.3421 133.418L72.2147 144.554L83.3579 155.697L72.2226 166.832L52.732 147.341L30.4536 169.62L19.3184 158.484L41.5967 136.198L22.1061 116.715L33.2414 105.58L44.3766 116.708L55.504 105.572ZM23.626 23.625L51.5507 23.6486L144.61 116.715L155.753 105.58L166.896 116.715L147.405 136.206L169.676 158.484L158.54 169.62L136.262 147.341L116.779 166.832L105.636 155.697L116.771 144.554L23.6417 51.4316L23.626 23.625ZM137.475 23.625L165.376 23.6486L165.392 51.3923L133.474 83.3018L105.628 55.4636L137.467 23.625H137.475Z" fill="black"/>
</svg>
