<svg width="240" height="192" viewBox="0 0 240 192" fill="none" xmlns="http://www.w3.org/2000/svg">
<path d="M16 64V136C16 138.122 16.8429 140.157 18.3431 141.657C19.8434 143.157 21.8783 144 24 144H104C106.122 144 108.157 144.843 109.657 146.343C111.157 147.843 112 149.878 112 152C112 154.122 111.157 156.157 109.657 157.657C108.157 159.157 106.122 160 104 160H88V176H104C106.122 176 108.157 176.843 109.657 178.343C111.157 179.843 112 181.878 112 184C112 186.122 111.157 188.157 109.657 189.657C108.157 191.157 106.122 192 104 192H56C53.8783 192 51.8434 191.157 50.3431 189.657C48.8429 188.157 48 186.122 48 184C48 181.878 48.8429 179.843 50.3431 178.343C51.8434 176.843 53.8783 176 56 176H72V160H24C17.6348 160 11.5303 157.471 7.02944 152.971C2.52856 148.47 0 142.365 0 136V64C0 57.6348 2.52856 51.5303 7.02944 47.0294C11.5303 42.5286 17.6348 40 24 40H104C106.122 40 108.157 40.8429 109.657 42.3431C111.157 43.8434 112 45.8783 112 48C112 50.1217 111.157 52.1566 109.657 53.6569C108.157 55.1571 106.122 56 104 56H24C21.8783 56 19.8434 56.8429 18.3431 58.3431C16.8429 59.8434 16 61.8783 16 64ZM200 32H168C165.878 32 163.843 32.8429 162.343 34.3431C160.843 35.8434 160 37.8783 160 40C160 42.1217 160.843 44.1566 162.343 45.6569C163.843 47.1571 165.878 48 168 48H200C202.122 48 204.157 47.1571 205.657 45.6569C207.157 44.1566 208 42.1217 208 40C208 37.8783 207.157 35.8434 205.657 34.3431C204.157 32.8429 202.122 32 200 32ZM200 64H168C165.878 64 163.843 64.8429 162.343 66.3431C160.843 67.8434 160 69.8783 160 72C160 74.1217 160.843 76.1566 162.343 77.6569C163.843 79.1571 165.878 80 168 80H200C202.122 80 204.157 79.1571 205.657 77.6569C207.157 76.1566 208 74.1217 208 72C208 69.8783 207.157 67.8434 205.657 66.3431C204.157 64.8429 202.122 64 200 64ZM240 16V176C240 180.243 238.314 184.313 235.314 187.314C232.313 190.314 228.243 192 224 192H144C139.757 192 135.687 190.314 132.686 187.314C129.686 184.313 128 180.243 128 176V16C128 11.7565 129.686 7.68687 132.686 4.68629C135.687 1.68571 139.757 0 144 0H224C228.243 0 232.313 1.68571 235.314 4.68629C238.314 7.68687 240 11.7565 240 16ZM224 176V16H144V176H224ZM184 136C181.627 136 179.307 136.704 177.333 138.022C175.36 139.341 173.822 141.215 172.913 143.408C172.005 145.601 171.768 148.013 172.231 150.341C172.694 152.669 173.836 154.807 175.515 156.485C177.193 158.164 179.331 159.306 181.659 159.769C183.987 160.232 186.399 159.995 188.592 159.087C190.785 158.178 192.659 156.64 193.978 154.667C195.296 152.693 196 150.373 196 148C196 144.817 194.736 141.765 192.485 139.515C190.235 137.264 187.183 136 184 136Z" fill="black"/>
</svg>
